<svg xmlns="http://www.w3.org/2000/svg" xmlns:xlink="http://www.w3.org/1999/xlink" width="30" height="30" viewBox="0 0 30 30">
  <defs>
    <filter id="Caminho_154" x="0" y="0" width="30" height="30" filterUnits="userSpaceOnUse">
      <feOffset dy="2" input="SourceAlpha"/>
      <feGaussianBlur stdDeviation="1" result="blur"/>
      <feFlood flood-opacity="0.059"/>
      <feComposite operator="in" in2="blur"/>
    </filter>
    <filter id="Caminho_155" x="2.25" y="2.25" width="25.5" height="25.5" filterUnits="userSpaceOnUse">
      <feOffset dy="2" input="SourceAlpha"/>
      <feGaussianBlur stdDeviation="1" result="blur-2"/>
      <feFlood flood-opacity="0.059"/>
      <feComposite operator="in" in2="blur-2"/>
      <feComposite in="SourceGraphic"/>
    </filter>
    <filter id="Caminho_156" x="6.973" y="10.207" width="15.577" height="9.343" filterUnits="userSpaceOnUse">
      <feOffset dy="2" input="SourceAlpha"/>
      <feGaussianBlur stdDeviation="1" result="blur-3"/>
      <feFlood flood-opacity="0.059"/>
      <feComposite operator="in" in2="blur-3"/>
      <feComposite in="SourceGraphic"/>
    </filter>
    <filter id="Caminho_157" x="7.96" y="13.551" width="13.08" height="8.989" filterUnits="userSpaceOnUse">
      <feOffset dy="2" input="SourceAlpha"/>
      <feGaussianBlur stdDeviation="1" result="blur-4"/>
      <feFlood flood-opacity="0.059"/>
      <feComposite operator="in" in2="blur-4"/>
      <feComposite in="SourceGraphic"/>
    </filter>
    <filter id="Caminho_158" x="5.994" y="7.079" width="18.04" height="9.454" filterUnits="userSpaceOnUse">
      <feOffset dy="2" input="SourceAlpha"/>
      <feGaussianBlur stdDeviation="1" result="blur-5"/>
      <feFlood flood-opacity="0.059"/>
      <feComposite operator="in" in2="blur-5"/>
      <feComposite in="SourceGraphic"/>
    </filter>
  </defs>
  <g id="Grupo_314" data-name="Grupo 314" transform="translate(3 1)">
    <g transform="matrix(1, 0, 0, 1, -3, -1)" filter="url(#Caminho_154)">
      <path id="Caminho_154-2" data-name="Caminho 154" d="M0,0H24V24H0Z" transform="translate(3 1)" fill="#fff"/>
    </g>
    <g transform="matrix(1, 0, 0, 1, -3, -1)" filter="url(#Caminho_155)">
      <path id="Caminho_155-2" data-name="Caminho 155" d="M12,12,3,12a9,9,0,1,0,9-9,9,9,0,0,0-9,9" transform="translate(3 1)" fill="none" stroke="#ffe747" stroke-linecap="round" stroke-linejoin="round" stroke-width="1.5"/>
    </g>
    <g transform="matrix(1, 0, 0, 1, -3, -1)" filter="url(#Caminho_156)">
      <path id="Caminho_156-2" data-name="Caminho 156" d="M8,11.973a6.838,6.838,0,0,1,7.5.527" transform="translate(3 1)" fill="none" stroke="#ffe747" stroke-linecap="round" stroke-linejoin="round" stroke-width="1.5"/>
    </g>
    <g transform="matrix(1, 0, 0, 1, -3, -1)" filter="url(#Caminho_157)">
      <path id="Caminho_157-2" data-name="Caminho 157" d="M9,15c1.5-1,4-1,5,.5" transform="translate(3 1)" fill="none" stroke="#ffe747" stroke-linecap="round" stroke-linejoin="round" stroke-width="1.5"/>
    </g>
    <g transform="matrix(1, 0, 0, 1, -3, -1)" filter="url(#Caminho_158)">
      <path id="Caminho_158-2" data-name="Caminho 158" d="M7,9a10.249,10.249,0,0,1,10,.5" transform="translate(3 1)" fill="none" stroke="#ffe747" stroke-linecap="round" stroke-linejoin="round" stroke-width="1.5"/>
    </g>
  </g>
</svg>
