<svg id="Icon_com_Tag" data-name="Icon com Tag" xmlns="http://www.w3.org/2000/svg" width="53" height="53" viewBox="0 0 53 53">
  <circle id="Elipse_2" data-name="Elipse 2" cx="26.5" cy="26.5" r="26.5" fill="#a127ff"/>
  <g id="Icon" transform="translate(12.294 11.943)">
    <rect id="Area" width="29" height="29" transform="translate(-0.294 0.057)" fill="#fcfcfc" opacity="0"/>
    <g id="Icon-2" data-name="Icon" transform="translate(-0.454 4.612)">
      <path id="_41872e73-5670-4d27-b194-dd511e87ab63" data-name="41872e73-5670-4d27-b194-dd511e87ab63" d="M17.286,9.243A40.594,40.594,0,0,0,4.763,11.4l-.621.229-.066.621L2.67,22.976A5.485,5.485,0,0,0,7.379,29.09a5.4,5.4,0,0,0,5.885-4.152h8.044a5.4,5.4,0,0,0,5.885,4.152A5.486,5.486,0,0,0,31.9,22.976L30.5,12.251l-.065-.621L29.81,11.4A40.6,40.6,0,0,0,17.286,9.243Zm0,2.093A36.4,36.4,0,0,1,28.534,13.2L29.81,23.27a3.346,3.346,0,0,1-6.637.85l-.033-.36-.131-.915H11.564l-.131.915-.032.36a3.346,3.346,0,0,1-6.637-.85L6.038,13.2A36.4,36.4,0,0,1,17.286,11.336ZM9.962,14.475v2.093H7.87v2.092H9.962v2.093h2.092V18.659h2.093V16.567H12.054V14.475Zm13.6,0a1.046,1.046,0,1,0,1.046,1.046A1.049,1.049,0,0,0,23.564,14.475Zm-2.093,2.093a1.046,1.046,0,1,0,1.046,1.046A1.048,1.048,0,0,0,21.472,16.567Zm4.186,0A1.046,1.046,0,1,0,26.7,17.613,1.048,1.048,0,0,0,25.657,16.567Zm-2.093,2.092a1.046,1.046,0,1,0,1.046,1.047A1.049,1.049,0,0,0,23.564,18.659Z" transform="translate(-2.626 -9.243)" fill="#fff"/>
    </g>
  </g>
</svg>
