<svg id="Grupo_15" data-name="Grupo 15" xmlns="http://www.w3.org/2000/svg" width="53" height="53" viewBox="0 0 53 53">
  <circle id="Elipse_2" data-name="Elipse 2" cx="26.5" cy="26.5" r="26.5" fill="#a127ff"/>
  <g id="Icon" transform="translate(12.294 11.943)">
    <rect id="Area" width="29" height="29" transform="translate(-0.294 0.057)" fill="#fcfcfc" opacity="0"/>
    <g id="Icon-2" data-name="Icon" transform="translate(-0.454 4.612)">
      <path id="aac81e39-e4f2-477d-a098-9573588aa488" d="M0,0H29V29H0Z" transform="translate(0.16 -4.555)" fill="none"/>
      <path id="_8efeb1c2-b2af-47ae-8d7a-452a1b302eee" data-name="8efeb1c2-b2af-47ae-8d7a-452a1b302eee" d="M9.667,4.833h9.666a4.834,4.834,0,0,1,4.834,4.834v9.666a4.834,4.834,0,0,1-4.834,4.834H9.667a4.834,4.834,0,0,1-4.834-4.834V9.667A4.834,4.834,0,0,1,9.667,4.833Z" transform="translate(0.16 -4.555)" fill="none" stroke="#fff" stroke-linecap="round" stroke-linejoin="round" stroke-width="2.417"/>
      <path id="ca45d458-c9e8-4668-a797-3ad5c3f9f75a" d="M18.125,14.5A3.625,3.625,0,1,1,14.5,10.875,3.625,3.625,0,0,1,18.125,14.5Z" transform="translate(0.16 -4.555)" fill="none" stroke="#fff" stroke-linecap="round" stroke-linejoin="round" stroke-width="2.417"/>
      <path id="dc35a23b-6ad6-4676-b88b-976a44013106" d="M19.938,9.063h0" transform="translate(0.16 -4.555)" fill="none" stroke="#fff" stroke-linecap="round" stroke-linejoin="round" stroke-width="2.417"/>
    </g>
  </g>
</svg>
