<svg id="Grupo_13" data-name="Grupo 13" xmlns="http://www.w3.org/2000/svg" width="53" height="53" viewBox="0 0 53 53">
  <circle id="Elipse_2" data-name="Elipse 2" cx="26.5" cy="26.5" r="26.5" fill="#a127ff"/>
  <g id="Icon" transform="translate(12.294 11.943)">
    <rect id="Area" width="29" height="29" transform="translate(-0.294 0.057)" fill="#fcfcfc" opacity="0"/>
    <g id="Icon-2" data-name="Icon" transform="translate(-0.454 4.612)">
      <path id="ba5c7947-ec85-4020-b25a-d141c81bdb00" d="M0,0H29V29H0Z" transform="translate(0.16 -4.555)" fill="none"/>
      <path id="_6054182c-c85e-4d90-878d-75cfcaf544a9" data-name="6054182c-c85e-4d90-878d-75cfcaf544a9" d="M26.583,4.845a21.6,21.6,0,0,1-3.625,1.2C21.6,4.513,19.6,4.429,17.666,5.151A4.752,4.752,0,0,0,14.5,9.667v1.208A11.353,11.353,0,0,1,4.833,6.042S-.22,15.023,9.667,19.333a11.91,11.91,0,0,1-7.25,2.417c4,2.179,8.353,2.928,12.124,1.833a13.3,13.3,0,0,0,9.245-9.355,16.742,16.742,0,0,0,.6-4.535c0-.3,1.824-3.349,2.2-4.849Z" transform="translate(0.16 -4.555)" fill="none" stroke="#fff" stroke-linecap="round" stroke-linejoin="round" stroke-width="2.417"/>
    </g>
  </g>
</svg>
