<svg id="Grupo_14" data-name="Grupo 14" xmlns="http://www.w3.org/2000/svg" width="53" height="53" viewBox="0 0 53 53">
  <circle id="Elipse_2" data-name="Elipse 2" cx="26.5" cy="26.5" r="26.5" fill="#a127ff"/>
  <g id="Icon" transform="translate(12.294 11.943)">
    <rect id="Area" width="29" height="29" transform="translate(-0.294 0.057)" fill="#fcfcfc" opacity="0"/>
    <g id="Icon-2" data-name="Icon" transform="translate(-0.454 4.612)">
      <path id="bd28bdfc-5739-4301-be48-020de831f4bd" d="M0,0H29V29H0Z" transform="translate(0.16 -4.555)" fill="none"/>
      <path id="_3108e5f5-7dab-4f70-a7b9-2bf81708eb48" data-name="3108e5f5-7dab-4f70-a7b9-2bf81708eb48" d="M8.458,6.042H20.542a4.833,4.833,0,0,1,4.833,4.833v7.25a4.833,4.833,0,0,1-4.833,4.833H8.458a4.833,4.833,0,0,1-4.833-4.833v-7.25A4.833,4.833,0,0,1,8.458,6.042Z" transform="translate(0.16 -4.555)" fill="none" stroke="#fff" stroke-linecap="round" stroke-linejoin="round" stroke-width="2.417"/>
      <path id="_52508b4a-4ad4-492a-a787-bb854dda02c8" data-name="52508b4a-4ad4-492a-a787-bb854dda02c8" d="M12.083,10.875,18.125,14.5l-6.042,3.625Z" transform="translate(0.16 -4.555)" fill="none" stroke="#fff" stroke-linecap="round" stroke-linejoin="round" stroke-width="2.417"/>
    </g>
  </g>
</svg>
